<svg width="774" height="788" viewBox="20 20 700 600" fill="none" xmlns="http://www.w3.org/2000/svg">
<path d="M382.5 232C402.854 218.431 450.613 197.796 479.873 222.952M480.5 223.5C480.292 223.315 480.083 223.132 479.873 222.952M479.873 222.952C455.372 226.913 439.082 246.301 434 255.5C470.8 247.5 520.667 271.167 541 284C508.6 274.8 474.167 291.833 461 301.5C473 315.5 562 327.333 605 331.5C583.8 349.9 513.167 352.5 480.5 351.5C489.3 367.5 616.167 389.5 678.5 398.5C664.5 409.3 589.667 414 554 415" stroke="white" stroke-width="4"/>
<path d="M157 538C147.333 526.833 128.4 496.9 130 466.5C134 478.1 150.833 493.167 160 500C139.6 481.2 129.333 414.333 125.5 382.5C136.3 420.1 159.333 441.5 169.5 447.5C135.5 404.3 150.667 329.5 162.5 297.5C162.5 337.1 179.167 365.667 187.5 375C181.1 325.4 210.5 257 226 229C217.6 283.8 227.167 308.833 233 314.5C229.8 266.1 264.333 224.333 282 209.5C270.8 235.5 273 264 275.5 275" stroke="white" stroke-width="4"/>
<path d="M170.5 497.5C158.9 531.1 158.667 630.833 160 676.5C260.8 706.5 370 629 412 586.5C391.5 576.5 360 520.5 357 504.5C354.6 491.7 354.333 452.167 354.5 434C316.1 416 311.5 375.5 314 357.5C314.667 368.833 320.6 396.2 339 415C362 438.5 408 429 412 429C416 429 456.5 454 458.5 463C460.1 470.2 468.5 484 472.5 490C536.5 492 517 484.5 534.5 458.5C548.5 437.7 532 418.5 522 411.5C505.833 399.667 470.1 366.2 456.5 327C439.5 278 411.5 270 409.5 269.5C407.5 269 380 263 371 249.5C362 236 333 223.5 331 221.5C329 219.5 332 213.5 327.5 215.5C323 217.5 323.5 234.5 324 237.5C324.4 239.9 336.5 255.5 342.5 263L336 266.5C172 344.5 185 455.5 170.5 497.5Z" fill="white"/>
<path d="M468 445C471.5 463.5 498.5 480.5 498.5 490.5" stroke="#0096FF" stroke-width="2"/>
<path d="M509 413C506.333 416.5 501.8 425.8 505 435C509 446.5 525.5 451 527.5 449.5C529.5 448 532.5 435 521.5 435" stroke="#0096FF" stroke-width="2"/>
<path d="M422 310.5C414 309.3 406 317.667 403 322C406.667 326.5 415.4 335.6 421 336C426.6 336.4 433.667 331.167 436.5 328.5C435 323 430 311.7 422 310.5Z" fill="#0096FF" stroke-width="2"/>
<path d="M614 122L471.5 248.5L492 253.5L614 122Z" fill="white"/>
</svg>
