<svg viewBox="0 0 512 512" fill="none" xmlns="http://www.w3.org/2000/svg">
<rect width="512" height="512" fill="white"/>
<g style="mix-blend-mode:hard-light">
<path d="M184.247 173.52V147.734C184.247 144.201 183.558 140.876 182.18 137.762C180.863 134.587 179.036 131.832 176.7 129.496C174.364 127.16 171.609 125.333 168.434 124.016C165.32 122.638 161.995 121.949 158.462 121.949C154.928 121.949 151.574 122.638 148.399 124.016C145.284 125.333 142.559 127.16 140.223 129.496C137.887 131.832 136.031 134.587 134.653 137.762C133.335 140.876 132.676 144.201 132.676 147.734V173.52H184.247ZM210.032 225H184.247V199.215H132.676V225H106.981V147.734C106.981 140.607 108.329 133.928 111.024 127.699C113.719 121.41 117.373 115.93 121.985 111.258C126.657 106.586 132.107 102.902 138.337 100.207C144.626 97.5117 151.334 96.1641 158.462 96.1641C165.589 96.1641 172.268 97.5117 178.497 100.207C184.786 102.902 190.266 106.586 194.938 111.258C199.61 115.93 203.294 121.41 205.989 127.699C208.684 133.928 210.032 140.607 210.032 147.734V225Z" fill="#CB3B3B"/>
</g>
<g style="mix-blend-mode:hard-light">
<path d="M419.713 225H394.017V133C394.017 131.203 393.658 129.526 392.939 127.969C392.28 126.411 391.352 125.064 390.154 123.926C389.016 122.728 387.668 121.799 386.111 121.141C384.554 120.482 382.877 120.152 381.08 120.152C379.283 120.152 377.606 120.482 376.049 121.141C374.491 121.799 373.114 122.728 371.916 123.926C370.778 125.064 369.879 126.411 369.221 127.969C368.562 129.526 368.232 131.203 368.232 133V225H342.447V133C342.447 131.203 342.118 129.526 341.459 127.969C340.8 126.411 339.872 125.064 338.674 123.926C337.536 122.728 336.188 121.799 334.631 121.141C333.073 120.482 331.396 120.152 329.599 120.152C327.803 120.152 326.125 120.482 324.568 121.141C323.011 121.799 321.633 122.728 320.435 123.926C319.297 125.064 318.399 126.411 317.74 127.969C317.081 129.526 316.752 131.203 316.752 133V225H290.967V133C290.967 127.669 291.955 122.668 293.931 117.996C295.968 113.264 298.723 109.161 302.197 105.688C305.731 102.154 309.834 99.3984 314.506 97.4219C319.237 95.3854 324.269 94.3672 329.599 94.3672C334.391 94.3672 339.003 95.2357 343.435 96.9727C347.868 98.6497 351.851 101.105 355.385 104.34C358.918 101.105 362.872 98.6497 367.244 96.9727C371.676 95.2357 376.288 94.3672 381.08 94.3672C386.411 94.3672 391.412 95.3854 396.084 97.4219C400.816 99.3984 404.918 102.154 408.392 105.688C411.926 109.161 414.681 113.264 416.658 117.996C418.694 122.668 419.713 127.669 419.713 133V225Z" fill="#CB3B3B"/>
</g>
<g style="mix-blend-mode:hard-light">
<path d="M213.446 293.087L171.13 421.923H145.344L103.208 293.087H132.497L158.192 379.068L183.977 293.087H213.446Z" fill="#CB3B3B"/>
</g>
<g style="mix-blend-mode:hard-light">
<path d="M411.267 408.716C405.278 413.867 398.569 417.82 391.142 420.575C383.715 423.331 376.019 424.708 368.053 424.708C361.943 424.708 356.043 423.9 350.353 422.282C344.723 420.725 339.422 418.509 334.451 415.634C329.54 412.699 325.047 409.195 320.974 405.122C316.902 401.049 313.398 396.557 310.463 391.646C307.588 386.674 305.342 381.374 303.724 375.743C302.167 370.053 301.389 364.154 301.389 358.044C301.389 351.935 302.167 346.035 303.724 340.345C305.342 334.655 307.588 329.354 310.463 324.443C313.398 319.471 316.902 314.949 320.974 310.876C325.047 306.803 329.54 303.329 334.451 300.454C339.422 297.519 344.723 295.273 350.353 293.716C356.043 292.099 361.943 291.29 368.053 291.29C376.019 291.29 383.715 292.668 391.142 295.423C398.569 298.118 405.278 302.072 411.267 307.282L397.611 329.743C393.838 325.67 389.375 322.556 384.224 320.4C379.073 318.183 373.683 317.075 368.053 317.075C362.362 317.075 357.032 318.154 352.06 320.31C347.089 322.466 342.747 325.401 339.033 329.114C335.319 332.768 332.385 337.111 330.228 342.142C328.072 347.113 326.994 352.414 326.994 358.044C326.994 363.674 328.072 368.975 330.228 373.947C332.385 378.858 335.319 383.17 339.033 386.884C342.747 390.598 347.089 393.532 352.06 395.689C357.032 397.845 362.362 398.923 368.053 398.923C373.683 398.923 379.073 397.845 384.224 395.689C389.375 393.473 393.838 390.328 397.611 386.255L411.267 408.716Z" fill="#CB3B3B"/>
</g>
<g style="mix-blend-mode:hard-light">
<path d="M192.401 186.673V160.888C192.401 157.354 191.712 154.03 190.334 150.916C189.016 147.741 187.19 144.986 184.854 142.65C182.518 140.314 179.763 138.487 176.588 137.169C173.473 135.792 170.149 135.103 166.615 135.103C163.082 135.103 159.727 135.792 156.553 137.169C153.438 138.487 150.713 140.314 148.377 142.65C146.041 144.986 144.184 147.741 142.807 150.916C141.489 154.03 140.83 157.354 140.83 160.888V186.673H192.401ZM218.186 238.154H192.401V212.369H140.83V238.154H115.135V160.888C115.135 153.761 116.483 147.082 119.178 140.853C121.873 134.564 125.527 129.084 130.139 124.412C134.811 119.74 140.261 116.056 146.49 113.361C152.779 110.666 159.488 109.318 166.615 109.318C173.743 109.318 180.421 110.666 186.651 113.361C192.94 116.056 198.42 119.74 203.092 124.412C207.764 129.084 211.447 134.564 214.143 140.853C216.838 147.082 218.186 153.761 218.186 160.888V238.154Z" fill="#004BBC"/>
</g>
<g style="mix-blend-mode:hard-light">
<path d="M427.867 238.154H402.171V146.154C402.171 144.357 401.812 142.68 401.093 141.123C400.434 139.565 399.506 138.218 398.308 137.08C397.17 135.882 395.822 134.953 394.265 134.294C392.708 133.636 391.031 133.306 389.234 133.306C387.437 133.306 385.76 133.636 384.203 134.294C382.645 134.953 381.268 135.882 380.07 137.08C378.932 138.218 378.033 139.565 377.374 141.123C376.716 142.68 376.386 144.357 376.386 146.154V238.154H350.601V146.154C350.601 144.357 350.272 142.68 349.613 141.123C348.954 139.565 348.025 138.218 346.828 137.08C345.69 135.882 344.342 134.953 342.785 134.294C341.227 133.636 339.55 133.306 337.753 133.306C335.956 133.306 334.279 133.636 332.722 134.294C331.165 134.953 329.787 135.882 328.589 137.08C327.451 138.218 326.553 139.565 325.894 141.123C325.235 142.68 324.906 144.357 324.906 146.154V238.154H299.12V146.154C299.12 140.823 300.109 135.822 302.085 131.15C304.122 126.418 306.877 122.315 310.351 118.841C313.885 115.307 317.988 112.552 322.66 110.576C327.391 108.539 332.423 107.521 337.753 107.521C342.545 107.521 347.157 108.39 351.589 110.126C356.022 111.804 360.005 114.259 363.538 117.494C367.072 114.259 371.025 111.804 375.398 110.126C379.83 108.39 384.442 107.521 389.234 107.521C394.565 107.521 399.566 108.539 404.238 110.576C408.969 112.552 413.072 115.307 416.546 118.841C420.08 122.315 422.835 126.418 424.812 131.15C426.848 135.822 427.867 140.823 427.867 146.154V238.154Z" fill="#004BBC"/>
</g>
<g style="mix-blend-mode:hard-light">
<path d="M221.6 306.241L179.283 435.077H153.498L111.361 306.241H140.651L166.346 392.221L192.131 306.241H221.6Z" fill="#004BBC"/>
</g>
<g style="mix-blend-mode:hard-light">
<path d="M419.421 421.87C413.432 427.021 406.723 430.974 399.296 433.729C391.869 436.484 384.173 437.862 376.206 437.862C370.097 437.862 364.197 437.053 358.507 435.436C352.877 433.879 347.576 431.663 342.605 428.788C337.693 425.853 333.201 422.349 329.128 418.276C325.055 414.203 321.551 409.711 318.617 404.8C315.742 399.828 313.495 394.527 311.878 388.897C310.321 383.207 309.542 377.307 309.542 371.198C309.542 365.089 310.321 359.189 311.878 353.499C313.495 347.809 315.742 342.508 318.617 337.596C321.551 332.625 325.055 328.103 329.128 324.03C333.201 319.957 337.693 316.483 342.605 313.608C347.576 310.673 352.877 308.427 358.507 306.87C364.197 305.253 370.097 304.444 376.206 304.444C384.173 304.444 391.869 305.822 399.296 308.577C406.723 311.272 413.432 315.225 419.421 320.436L405.765 342.897C401.992 338.824 397.529 335.71 392.378 333.553C387.227 331.337 381.837 330.229 376.206 330.229C370.516 330.229 365.186 331.307 360.214 333.464C355.243 335.62 350.9 338.555 347.187 342.268C343.473 345.922 340.538 350.264 338.382 355.296C336.226 360.267 335.148 365.568 335.148 371.198C335.148 376.828 336.226 382.129 338.382 387.1C340.538 392.012 343.473 396.324 347.187 400.038C350.9 403.751 355.243 406.686 360.214 408.843C365.186 410.999 370.516 412.077 376.206 412.077C381.837 412.077 387.227 410.999 392.378 408.843C397.529 406.626 401.992 403.482 405.765 399.409L419.421 421.87Z" fill="#004BBC"/>
</g>
</svg>
